<svg width="871" height="573" viewBox="0 0 871 573" fill="none" xmlns="http://www.w3.org/2000/svg">
<path d="M757.949 33.0017L755.199 33.2392C731.982 35.3021 711.566 49.6295 702.69 70.958C701.549 73.7023 700.613 76.5272 699.889 79.4095C697.396 89.9219 697.537 100.887 700.3 111.332C703.064 121.777 708.364 131.378 715.729 139.282C724.481 148.533 736.27 155.71 741.046 167.462C747.297 182.752 739.396 199.642 731.707 214.132C724.018 228.622 716.192 245.537 722.481 260.802C726.419 270.366 735.358 277.18 744.984 281.256C770.289 292.07 800.794 285.719 822.497 269.254C844.201 252.788 857.841 227.522 864.767 201.23C874.493 164.386 871.605 123.392 852.352 90.1487C833.099 56.9057 796.418 32.8767 757.949 33.0017Z" fill="#F5F5F5"/>
<path d="M737.731 526.731C763.271 501.191 763.271 459.783 737.731 434.244C712.191 408.704 670.783 408.704 645.244 434.244C619.704 459.783 619.704 501.191 645.244 526.731C670.783 552.271 712.191 552.271 737.731 526.731Z" fill="#F5F5F5"/>
<path d="M68.8465 475.776C99.5724 475.776 124.481 450.867 124.481 420.141C124.481 389.415 99.5724 364.507 68.8465 364.507C38.1205 364.507 13.2122 389.415 13.2122 420.141C13.2122 450.867 38.1205 475.776 68.8465 475.776Z" fill="#F5F5F5"/>
<path d="M674.098 24.8254H389.6V232.81H674.098V24.8254Z" fill="white"/>
<path d="M674.098 232.81C674.098 230.622 673.985 150.859 673.823 24.8254L674.098 25.0879H389.625L389.95 24.7629C389.95 99.3878 389.95 170.125 389.95 232.748L389.65 232.448L674.148 232.748L389.65 233.048H389.35V232.748C389.35 170.125 389.35 99.3878 389.35 24.7629V24.4753H389.7H674.173H674.435V24.7379C674.198 150.859 674.098 230.622 674.098 232.81Z" fill="#263238"/>
<path d="M675.06 55.0929C675.06 55.2679 611.5 55.4179 533.124 55.4179C454.749 55.4179 391.188 55.2679 391.188 55.0929C391.188 54.9178 454.724 54.7678 533.124 54.7678C611.525 54.7678 675.06 54.9178 675.06 55.0929Z" fill="#E0E0E0"/>
<path d="M407.841 39.3153C407.841 40.1634 407.589 40.9925 407.118 41.6977C406.647 42.4029 405.977 42.9525 405.193 43.2771C404.41 43.6017 403.548 43.6866 402.716 43.5211C401.884 43.3557 401.12 42.9473 400.52 42.3475C399.92 41.7478 399.512 40.9837 399.347 40.1519C399.181 39.3201 399.266 38.4579 399.591 37.6743C399.915 36.8907 400.465 36.221 401.17 35.7498C401.875 35.2786 402.704 35.0271 403.552 35.0271C404.69 35.0271 405.78 35.4789 406.585 36.2831C407.389 37.0873 407.841 38.178 407.841 39.3153Z" fill="#E0E0E0"/>
<path d="M420.755 39.3153C420.755 40.164 420.503 40.9936 420.032 41.699C419.56 42.4045 418.889 42.9541 418.105 43.2783C417.321 43.6025 416.458 43.6867 415.626 43.5202C414.794 43.3537 414.03 42.9441 413.43 42.3431C412.831 41.7421 412.424 40.9769 412.26 40.1442C412.096 39.3116 412.182 38.449 412.509 37.6656C412.835 36.8823 413.387 36.2134 414.094 35.7437C414.8 35.274 415.631 35.0246 416.479 35.0271C417.614 35.0337 418.699 35.488 419.5 36.2911C420.301 37.0943 420.752 38.1812 420.755 39.3153Z" fill="#E0E0E0"/>
<path d="M433.657 39.3153C433.657 40.164 433.406 40.9936 432.934 41.699C432.462 42.4045 431.792 42.9541 431.007 43.2783C430.223 43.6025 429.36 43.6867 428.528 43.5202C427.696 43.3537 426.932 42.9441 426.333 42.3431C425.733 41.7421 425.326 40.9769 425.162 40.1442C424.998 39.3116 425.085 38.449 425.411 37.6656C425.738 36.8823 426.289 36.2134 426.996 35.7437C427.703 35.274 428.533 35.0246 429.382 35.0271C430.517 35.0304 431.604 35.4837 432.406 36.2875C433.207 37.0914 433.657 38.1802 433.657 39.3153Z" fill="#E0E0E0"/>
<path d="M408.091 107.164L409.891 106.014C410.673 105.521 411.548 105.194 412.462 105.053C413.376 104.912 414.309 104.96 415.203 105.195C416.097 105.429 416.934 105.845 417.661 106.416C418.388 106.987 418.99 107.701 419.43 108.514C422.318 113.778 425.906 121.117 425.906 121.117L418.317 133.118L415.817 133.194C413.067 134.956 406.615 131.393 402.252 128.755C397.889 126.117 400.039 123.442 400.039 123.442C397.314 119.691 401.077 118.129 401.077 118.129C400.762 117.681 400.54 117.175 400.426 116.64C400.311 116.106 400.305 115.553 400.409 115.016C400.513 114.479 400.724 113.969 401.03 113.515C401.336 113.062 401.731 112.675 402.19 112.378" fill="#FFBE9D"/>
<path d="M404.308 69.1977L349.497 79.7031L364.208 156.457L419.019 145.951L404.308 69.1977Z" fill="white"/>
<path d="M364.208 156.472L364.133 156.122C364.067 155.872 363.992 155.522 363.908 155.072C363.721 154.11 363.433 152.722 363.083 150.934C362.358 147.271 361.308 141.957 359.995 135.231C357.357 121.679 353.619 102.476 349.218 79.7721L349.156 79.4846H349.443L404.252 68.9453H404.578V69.2704C410.053 98.0252 415.129 124.592 419.217 146.033V146.296H418.955L378.948 153.797L368.059 155.747L365.183 156.26C364.533 156.385 364.208 156.422 364.208 156.422L365.221 156.197L368.134 155.61L379.186 153.422L418.98 145.746L418.78 146.058C414.654 124.617 409.541 98.0502 404.002 69.3204L404.39 69.5704L349.581 80.0472L349.818 79.7096C354.094 102.351 357.72 121.504 360.27 135.031L363.196 150.746C363.521 152.572 363.783 153.972 363.958 154.96C364.046 155.422 364.108 155.785 364.158 156.047C364.189 156.187 364.206 156.329 364.208 156.472Z" fill="#263238"/>
<path d="M358.657 97.3C358.657 97.1249 367.671 95.2496 378.861 93.0993C390.05 90.9489 399.152 89.3486 399.189 89.5362C399.227 89.7237 390.225 91.599 378.973 93.7369C367.721 95.8747 358.682 97.475 358.657 97.3Z" fill="#263238"/>
<path d="M359.695 102.726C359.695 102.551 368.709 100.663 379.898 98.5251C391.088 96.3873 400.189 94.7745 400.227 94.9495C400.264 95.1246 391.213 97.0124 380.023 99.1627C368.834 101.313 359.72 102.901 359.695 102.726Z" fill="#263238"/>
<path d="M360.733 108.139C360.733 107.964 369.747 106.089 380.936 103.939C392.126 101.788 401.24 100.188 401.265 100.376C401.29 100.563 392.251 102.438 381.061 104.576C369.872 106.714 360.758 108.314 360.733 108.139Z" fill="#263238"/>
<path d="M361.771 113.565C361.771 113.39 370.785 111.502 381.974 109.364C393.163 107.227 402.277 105.614 402.302 105.789C402.327 105.964 393.288 107.852 382.099 110.002C370.91 112.152 361.808 113.74 361.771 113.565Z" fill="#263238"/>
<path d="M362.808 118.979C362.808 118.804 371.822 116.928 383.011 114.778C394.201 112.628 403.315 111.027 403.34 111.215C403.365 111.402 394.338 113.278 383.136 115.416C371.935 117.553 362.846 119.154 362.808 118.979Z" fill="#263238"/>
<path d="M363.846 124.405C363.846 124.23 372.86 122.342 384.049 120.204C395.238 118.066 404.352 116.453 404.377 116.628C404.402 116.803 395.376 118.691 384.174 120.841C372.972 122.992 363.883 124.58 363.846 124.405Z" fill="#263238"/>
<path d="M364.883 129.818C364.883 129.643 373.897 127.768 385.087 125.617C396.276 123.467 405.39 121.867 405.428 122.054C405.465 122.242 396.476 124.117 385.224 126.255C373.972 128.393 364.921 129.993 364.883 129.818Z" fill="#263238"/>
<path d="M365.921 135.244C365.921 135.069 374.935 133.181 386.124 131.043C397.314 128.905 406.428 127.293 406.465 127.468C406.503 127.643 397.451 129.53 386.249 131.681C375.047 133.831 365.958 135.419 365.921 135.244Z" fill="#263238"/>
<path d="M366.959 140.657C366.959 140.482 375.973 138.607 387.162 136.456C398.352 134.306 407.466 132.706 407.503 132.893C407.541 133.081 398.489 134.956 387.287 137.094C376.085 139.232 366.996 140.832 366.959 140.657Z" fill="#263238"/>
<path d="M396.764 73.496C396.957 73.9304 397.092 74.3887 397.164 74.8588L397.989 78.6094C398.064 79.0094 398.151 79.422 398.251 79.8596C398.329 80.2561 398.327 80.6639 398.246 81.0597C398.166 81.4556 398.008 81.8317 397.783 82.1666C397.557 82.5016 397.267 82.7887 396.93 83.0117C396.594 83.2348 396.216 83.3893 395.82 83.4664C395.423 83.5436 395.015 83.5419 394.62 83.4615C394.224 83.381 393.848 83.2234 393.513 82.9976C393.178 82.7718 392.891 82.4823 392.668 82.1455C392.445 81.8087 392.29 81.4313 392.213 81.0348L392.038 80.1471C391.925 79.547 391.813 78.8969 391.688 78.3343C391.463 77.1258 391.238 75.9381 391.013 74.7712C390.913 74.1961 390.8 73.6335 390.7 73.0834C390.559 72.5198 390.5 71.9387 390.525 71.3582C390.568 70.8108 390.722 70.2779 390.978 69.7921C391.234 69.3063 391.586 68.8778 392.013 68.5327C392.757 67.9366 393.685 67.6183 394.638 67.6325C395.317 67.6479 395.981 67.8392 396.563 68.1876C397.146 68.536 397.629 69.0297 397.964 69.6204C398.141 69.9353 398.263 70.2776 398.326 70.633C398.326 70.8706 398.326 70.9956 398.326 71.0081C398.152 70.5774 397.947 70.1596 397.714 69.7579C397.372 69.2483 396.911 68.8303 396.371 68.5404C395.83 68.2505 395.227 68.0976 394.613 68.0951C393.775 68.1045 392.966 68.4051 392.325 68.9453C391.959 69.2558 391.659 69.6374 391.444 70.0672C391.229 70.497 391.104 70.966 391.075 71.4457C391.068 71.9685 391.131 72.4899 391.263 72.9959C391.363 73.5585 391.475 74.1211 391.588 74.6962C391.813 75.8464 392.038 77.0341 392.275 78.2593C392.4 78.8594 392.513 79.5095 392.625 80.0596L392.788 80.9473C392.84 81.2022 392.933 81.4471 393.063 81.6724C393.308 82.1061 393.677 82.4568 394.122 82.6796C394.568 82.9023 395.07 82.9869 395.563 82.9226C396.02 82.8535 396.449 82.6593 396.802 82.3613C397.155 82.0634 397.419 81.6735 397.564 81.2348C397.698 80.8324 397.732 80.4033 397.664 79.9846C397.589 79.5595 397.514 79.1345 397.451 78.7344C397.201 77.2341 396.989 75.9589 396.826 74.9838C396.748 74.4919 396.727 73.9927 396.764 73.496Z" fill="#263238"/>
<path d="M413.079 104.976C412.667 104.976 396.426 107.477 396.426 107.477C396.139 108.977 397.014 111.09 400.84 111.152C404.465 111.215 407.741 110.902 407.741 110.902C407.741 110.902 411.754 119.279 415.705 120.216C419.655 121.154 417.717 112.165 417.717 112.165L413.079 104.976Z" fill="#FFBE9D"/>
<path d="M599.185 52.0926C600.598 48.817 602.023 45.4415 602.161 41.8534C602.298 38.2653 600.823 34.3521 597.722 32.7643C594.872 31.2641 591.359 31.9642 588.321 30.889C584.57 29.5513 582.22 25.7757 580.557 22.0751C578.894 18.3744 581.207 17.0742 578.394 14.1362C574.643 10.3856 572.243 9.773 567.53 12.0984C564.142 9.69799 552.352 5.34726 548.952 5.23475C543.951 5.08472 538.175 5.48479 534.649 9.09789C531.924 11.8984 530.186 15.474 526.835 17.4868C522.222 20.2623 516.346 17.8994 510.97 18.0994C510.417 18.0511 509.861 18.1534 509.362 18.3956C508.862 18.6377 508.437 19.0106 508.132 19.4746C508.008 19.9319 507.982 20.4105 508.058 20.8784C508.133 21.3463 508.308 21.7927 508.57 22.1876L512.746 30.814C511.611 31.333 510.372 31.5869 509.125 31.5566C507.877 31.5263 506.653 31.2125 505.544 30.639C505.804 36.3592 508.066 41.8063 511.933 46.0291C511.675 45.8997 511.393 45.8256 511.104 45.8115C510.816 45.7974 510.528 45.8436 510.259 45.9472C509.989 46.0507 509.744 46.2093 509.54 46.4129C509.335 46.6164 509.175 46.8604 509.07 47.1292C508.683 48.2426 508.683 49.4539 509.07 50.5673C510.013 54.0445 511.69 57.2791 513.989 60.0529C516.288 62.8266 519.155 65.0749 522.397 66.6462C525.64 68.2174 529.181 69.075 532.782 69.161C536.384 69.2471 539.962 68.5597 543.276 67.1451L572.931 69.3829C573.334 70.53 574.01 71.5617 574.901 72.3893C575.792 73.2169 576.871 73.8156 578.044 74.1337C581.357 71.6333 581.895 70.2956 581.895 70.2956C583.933 71.8084 582.332 71.0457 583.933 71.8084C587.608 73.5586 593.047 71.4833 593.934 67.3826C594.137 65.7197 594.819 64.1516 595.897 62.8694C597.212 61.839 598.686 61.0283 600.26 60.469C602.63 59.2599 604.537 57.305 605.686 54.9055C604.466 54.9156 603.258 54.6706 602.138 54.1862C601.019 53.7018 600.013 52.9886 599.185 52.0926Z" fill="#263238"/>
<path d="M578.206 39.378L578.969 100.638C579.094 111.04 577.156 126.355 560.691 125.817C546.438 124.267 542.65 110.815 542.55 101.063C542.55 96.45 542.438 92.6119 542.4 92.1368C542.4 92.1368 526.798 90.8866 525.485 75.4465C524.847 68.0077 524.785 52.5552 524.897 38.5903C524.945 31.3498 527.723 24.3938 532.676 19.1119C537.629 13.83 544.392 10.6111 551.614 10.0981L553.102 9.98557C569.217 9.71053 578.419 23.2253 578.206 39.378Z" fill="#FFBE9D"/>
<path d="M542.4 92.0992C549.524 91.5615 556.345 88.993 562.054 84.698C562.054 84.698 557.978 96.3124 542.488 96.0499L542.4 92.0992Z" fill="#EB996E"/>
<path d="M551.239 44.8662C551.54 45.1788 553.327 43.741 555.903 43.616C558.478 43.491 560.416 44.8662 560.691 44.4786C560.966 44.0911 560.503 43.766 559.653 43.2284C558.52 42.4718 557.177 42.0913 555.815 42.1408C554.451 42.1695 553.134 42.6437 552.065 43.491C551.339 44.1411 551.089 44.7287 551.239 44.8662Z" fill="#263238"/>
<path d="M550.777 50.6048C550.809 51.1487 551.054 51.6581 551.459 52.023C551.864 52.3879 552.395 52.579 552.94 52.5551C553.206 52.5585 553.469 52.5083 553.715 52.4075C553.961 52.3066 554.184 52.1571 554.371 51.968C554.558 51.7789 554.704 51.554 554.802 51.3069C554.9 51.0598 554.947 50.7955 554.94 50.5298C554.926 50.2571 554.858 49.9899 554.74 49.7436C554.622 49.4973 554.457 49.2766 554.254 49.0943C554.05 48.9119 553.813 48.7715 553.556 48.681C553.298 48.5905 553.025 48.5517 552.752 48.5669C552.488 48.5685 552.227 48.6228 551.984 48.7265C551.741 48.8303 551.521 48.9814 551.337 49.1712C551.153 49.3609 551.009 49.5854 550.913 49.8316C550.816 50.0777 550.77 50.3406 550.777 50.6048Z" fill="#263238"/>
<path d="M544.776 62.8193C543.496 62.5315 542.187 62.3931 540.875 62.4067C540.263 62.4067 539.625 62.3192 539.55 61.9066C539.45 61.2844 539.546 60.6465 539.825 60.0813L541.275 55.343C543.276 48.6044 544.688 43.0785 544.413 43.0035C544.138 42.9284 542.288 48.3168 540.288 55.068C539.813 56.7308 539.35 58.306 538.912 59.8313C538.589 60.5866 538.54 61.4316 538.775 62.2192C538.874 62.4273 539.021 62.6092 539.203 62.7503C539.386 62.8914 539.599 62.9878 539.825 63.0318C540.166 63.1032 540.515 63.1284 540.863 63.1068C542.174 63.178 543.489 63.0814 544.776 62.8193Z" fill="#263238"/>
<path d="M552.34 35.1521C552.59 35.7272 554.652 35.3021 557.128 35.4271C559.603 35.5522 561.641 36.1023 561.929 35.5522C562.054 35.2896 561.666 34.7645 560.828 34.302C559.719 33.6805 558.478 33.3294 557.207 33.2773C555.937 33.2252 554.672 33.4734 553.515 34.0019C552.652 34.3895 552.227 34.8896 552.34 35.1521Z" fill="#263238"/>
<path d="M527.823 39.9405C528.086 40.4031 530.099 39.9405 532.549 39.8155C534.999 39.6905 537.012 40.053 537.275 39.5654C537.387 39.3279 536.975 38.9153 536.125 38.5403C534.981 38.0865 533.753 37.8861 532.524 37.9527C531.275 37.984 530.047 38.2824 528.923 38.8278C528.086 39.2654 527.748 39.7155 527.823 39.9405Z" fill="#263238"/>
<path d="M577.756 50.8924C578.006 50.7673 588.121 46.9917 588.558 57.556C588.996 68.1202 578.294 66.3824 578.256 66.0824C578.219 65.7823 577.756 50.8924 577.756 50.8924Z" fill="#FFBE9D"/>
<path d="M581.345 61.9817C581.345 61.9817 581.532 62.0942 581.857 62.2318C582.299 62.4072 582.791 62.4072 583.233 62.2318C584.333 61.7692 585.195 59.9564 585.17 58.0561C585.162 57.1491 584.948 56.2558 584.545 55.4431C584.434 55.1163 584.245 54.8215 583.995 54.584C583.744 54.3466 583.44 54.1737 583.108 54.0804C582.894 54.0339 582.671 54.0635 582.477 54.1639C582.283 54.2643 582.13 54.4294 582.045 54.6305C581.907 54.9306 581.982 55.1431 581.932 55.1556C581.882 55.1681 581.695 54.9931 581.757 54.5555C581.807 54.2867 581.948 54.0436 582.157 53.8679C582.295 53.7534 582.455 53.6678 582.627 53.6162C582.799 53.5647 582.979 53.5482 583.158 53.5678C583.596 53.627 584.012 53.8017 584.361 54.0741C584.71 54.3465 584.981 54.7068 585.145 55.1181C585.638 56.0148 585.901 57.0202 585.908 58.0436C585.908 60.1689 584.92 62.2068 583.408 62.7194C583.128 62.8137 582.832 62.8436 582.539 62.8068C582.247 62.77 581.967 62.6674 581.72 62.5068C581.382 62.1943 581.307 61.9817 581.345 61.9817Z" fill="#EB996E"/>
<path d="M547.264 70.1455C547.151 69.8705 549.214 69.2579 550.677 67.3076C551.285 66.4602 551.777 65.5351 552.14 64.5571C552.452 63.782 552.677 63.3069 552.79 63.3069C552.902 63.3069 552.877 63.857 552.702 64.6946C552.48 65.8114 552.015 66.8657 551.339 67.7826C550.65 68.7046 549.72 69.4184 548.651 69.8455C547.839 70.208 547.289 70.233 547.264 70.1455Z" fill="#263238"/>
<path d="M591.834 33.7894C589.633 30.0388 589.121 25.6131 587.908 21.4499C586.695 17.2867 584.395 12.986 580.319 11.5232H580.219C576.556 10.048 572.043 10.023 569.042 12.5609C568.292 7.07247 563.479 2.72174 558.116 1.309C552.752 -0.103731 544.151 0.73391 539.012 2.80926C535.037 4.40952 531.199 7.68507 526.51 12.4984C524.539 14.5277 522.737 16.7145 521.122 19.037L516.496 33.5019C515.99 33.8646 515.546 34.3081 515.183 34.8146C514.815 35.3539 514.654 36.008 514.729 36.6567C514.804 37.3054 515.111 37.9052 515.593 38.346C516.075 38.7868 516.699 39.039 517.352 39.0563C518.005 39.0736 518.642 38.8549 519.146 38.4402C519.622 39.2528 519.984 40.078 520.397 40.9406L520.472 41.0906C520.707 41.6168 520.97 42.1301 521.259 42.6284L524.86 58.5436C525.097 54.2053 524.772 39.1153 524.997 34.7896C528.261 34.6926 531.472 33.9371 534.437 32.5686C537.401 31.2001 540.059 29.2468 542.25 26.8258C544.613 24.2003 546.476 20.9123 549.652 19.3245C553.74 17.2992 558.603 18.7744 562.916 20.2747L562.729 20.1121C564.977 21.1509 567.006 22.6108 568.705 24.4129C567.732 32.9859 568.619 41.668 571.305 49.8671C571.705 51.1173 572.805 53.6177 574.018 54.1053C576.394 55.018 577.031 52.6051 578.456 51.3174C579.723 50.4536 581.259 50.0762 582.782 50.2547C583.964 46.6602 584.932 42.999 585.683 39.2903C587.119 39.7332 588.638 39.8359 590.121 39.5904C589.658 38.5027 589.208 37.415 588.746 36.3148C589.313 36.73 589.96 37.0236 590.646 37.1775C590.991 37.2487 591.349 37.2112 591.671 37.0701C591.994 36.929 592.265 36.6913 592.446 36.3899C592.834 35.5022 592.296 34.5646 591.834 33.7894Z" fill="#263238"/>
<path d="M564.192 14.3862C564.737 14.8209 565.251 15.2929 565.73 15.799C566.952 17.2685 567.77 19.0306 568.105 20.9123C568.363 22.2049 568.493 23.5198 568.493 24.838C568.493 26.2507 568.38 27.776 568.28 29.3762C568.131 31.0388 568.093 32.7095 568.168 34.3771C568.213 35.2761 568.326 36.1704 568.505 37.0525C568.645 37.9926 569.019 38.8825 569.593 39.6404C569.862 39.939 570.204 40.1627 570.585 40.2898C570.966 40.4169 571.374 40.443 571.768 40.3656C572.526 40.2248 573.216 39.8381 573.731 39.2654C574.569 38.1288 575.095 36.7926 575.256 35.3897H574.931C575.399 36.553 576.03 37.6434 576.806 38.6278C577.563 39.5321 578.636 40.1135 579.807 40.253C580.352 40.3091 580.901 40.214 581.395 39.978C581.854 39.7432 582.23 39.372 582.47 38.9153C582.702 38.4998 582.815 38.0281 582.795 37.5526C582.791 37.0902 582.618 36.6453 582.307 36.3024L582.145 36.4399C583.056 37.502 584.187 38.3549 585.458 38.9403C585.796 39.1423 586.147 39.3219 586.508 39.4779C586.624 39.5251 586.746 39.5545 586.871 39.5654C586.761 39.5008 586.643 39.4503 586.521 39.4154C586.296 39.3279 585.958 39.1904 585.533 38.9778C584.312 38.3636 583.224 37.5138 582.332 36.4774L582.17 36.6274C582.422 36.9511 582.567 37.3454 582.585 37.7554C582.603 38.1654 582.493 38.5708 582.27 38.9153C582.044 39.3167 581.705 39.6427 581.295 39.853C580.847 40.0643 580.349 40.1466 579.857 40.0905C578.763 39.9503 577.765 39.3953 577.069 38.5403C576.313 37.5483 575.703 36.4538 575.256 35.2897L575.031 34.7896L574.931 35.3272C574.792 36.6785 574.305 37.9706 573.518 39.0778C573.058 39.5886 572.443 39.9353 571.768 40.0655C571.432 40.1294 571.085 40.1054 570.761 39.9959C570.437 39.8864 570.146 39.695 569.918 39.4404C569.378 38.737 569.029 37.9057 568.905 37.0275C568.726 36.1664 568.613 35.2929 568.568 34.4146C568.496 32.7474 568.525 31.0774 568.655 29.4137C568.755 27.8135 568.868 26.2882 568.843 24.8505C568.834 23.5137 568.687 22.1815 568.405 20.8748C568.045 18.9659 567.182 17.1878 565.905 15.724C565.416 15.1815 564.837 14.7287 564.192 14.3862Z" fill="#455A64"/>
<path d="M516.496 29.3888L516.621 29.4888L517.009 29.7763C517.218 29.9247 517.435 30.0624 517.659 30.1889C517.962 30.3692 518.275 30.532 518.596 30.6765C520.662 31.6202 522.932 32.0287 525.198 31.8642C528.565 31.6488 531.797 30.4586 534.499 28.4386C537.765 25.9465 540.484 22.8104 542.488 19.2246C543.613 17.3617 544.526 15.4739 545.538 13.6736C546.463 11.9537 547.629 10.3749 549.002 8.98535C550.235 7.72549 551.765 6.79674 553.452 6.2849C554.212 6.06959 555.002 5.98089 555.79 6.02235C556.522 6.06069 557.246 6.19951 557.941 6.43492C559.136 6.84084 560.232 7.49723 561.154 8.36024C561.849 9.01735 562.436 9.78124 562.891 10.6231C563.248 11.3586 563.513 12.1354 563.679 12.936C563.679 12.936 563.679 12.8735 563.679 12.7735C563.679 12.6735 563.679 12.4859 563.679 12.2984C563.55 11.6986 563.353 11.1156 563.091 10.5606C562.619 9.68419 562.002 8.8938 561.266 8.22272C560.332 7.31719 559.215 6.62231 557.991 6.18488C557.275 5.93992 556.532 5.78863 555.778 5.7348C554.956 5.69389 554.134 5.78249 553.34 5.99735C551.605 6.51692 550.027 7.46247 548.751 8.74781C547.355 10.1542 546.167 11.7542 545.226 13.4986C544.213 15.2864 543.301 17.2492 542.188 19.037C540.2 22.5758 537.521 25.6793 534.312 28.1635C531.662 30.1636 528.495 31.3612 525.185 31.6141C522.956 31.7959 520.716 31.4311 518.659 30.5514C517.919 30.2003 517.197 29.8123 516.496 29.3888Z" fill="#455A64"/>
<path d="M515.096 22.6126C515.263 22.7637 515.448 22.8939 515.646 23.0002C516.172 23.3135 516.719 23.5892 517.284 23.8253C518.124 24.1848 518.994 24.4693 519.884 24.6754C522.065 25.1873 524.326 25.2596 526.536 24.888C527.433 24.7393 528.315 24.5134 529.174 24.2129C529.751 24.0069 530.315 23.7647 530.861 23.4877C531.063 23.3885 531.256 23.2714 531.436 23.1377C531.436 23.1377 530.549 23.5128 529.099 23.9628C528.239 24.227 527.362 24.4276 526.473 24.5629C525.392 24.7159 524.301 24.7828 523.21 24.763C522.117 24.7167 521.03 24.5787 519.959 24.3504C519.083 24.1631 518.222 23.9081 517.384 23.5878C515.959 23.0377 515.134 22.5501 515.096 22.6126Z" fill="#455A64"/>
<path d="M527.748 45.8415C528.06 46.1541 529.836 44.7163 532.424 44.5913C535.012 44.4663 536.924 45.8415 537.2 45.454C537.475 45.0664 537.012 44.7288 536.174 44.2037C535.04 43.4487 533.698 43.0683 532.336 43.1161C530.97 43.1335 529.649 43.609 528.586 44.4663C527.748 45.1164 527.548 45.729 527.748 45.8415Z" fill="#263238"/>
<path d="M529.161 50.9549C529.196 51.4976 529.442 52.0051 529.846 52.3694C530.25 52.7336 530.78 52.9259 531.324 52.9052C531.59 52.9086 531.854 52.8584 532.101 52.7577C532.347 52.6569 532.571 52.5077 532.759 52.3188C532.947 52.1298 533.095 51.9051 533.194 51.6579C533.293 51.4107 533.342 51.1461 533.336 50.8798C533.304 50.3348 533.06 49.8242 532.655 49.4573C532.251 49.0904 531.719 48.8964 531.174 48.917C530.907 48.917 530.643 48.9699 530.398 49.0726C530.152 49.1753 529.929 49.3258 529.741 49.5154C529.554 49.7049 529.406 49.9298 529.307 50.1769C529.207 50.424 529.157 50.6884 529.161 50.9549Z" fill="#263238"/>
<path d="M517.459 108.239L461.7 144.733L427.732 118.241L417.155 135.006C417.155 135.006 436.933 157.898 444.259 165.674C451.586 173.45 456.486 177.588 462.25 176.851C468.013 176.113 516.309 157.36 516.309 157.36L523.635 106.177L520.56 106.914C519.456 107.169 518.406 107.618 517.459 108.239Z" fill="#455A64"/>
<path d="M579.682 95.7373C567.18 103.576 554.678 106.527 541.9 101.451L522.747 106.339L513.446 122.517C511.984 125.059 511.318 127.981 511.533 130.906L515.246 192.829L503.994 232.16L614.413 233.11L608.974 203.893L595.284 98.8753L579.682 95.7373Z" fill="#455A64"/>
<path d="M596.51 146.021L593.059 98.6128C593.059 98.6128 619.051 101.013 627.652 119.354C634.891 134.806 656.645 179.726 658.783 186.077C665.034 204.743 653.507 231.973 613.037 230.485L608.424 205.118L596.51 146.021Z" fill="#455A64"/>
<path d="M617.326 185.49C617.487 186.127 617.7 186.75 617.963 187.353C618.413 188.49 619.076 190.041 619.839 191.728L621.789 196.067C622.029 196.678 622.313 197.271 622.639 197.842C622.477 197.203 622.259 196.58 621.989 195.979C621.551 194.841 620.889 193.304 620.126 191.603C619.364 189.903 618.713 188.465 618.176 187.265C617.932 186.655 617.648 186.062 617.326 185.49Z" fill="#263238"/>
<path d="M602.936 148.171C603.023 148.171 603.098 145.171 603.098 141.47C603.098 137.769 603.023 134.756 602.936 134.756C602.848 134.756 602.786 137.757 602.786 141.47C602.786 145.183 602.861 148.171 602.936 148.171Z" fill="#263238"/>
<path d="M606.761 127.993C606.872 127.754 606.952 127.502 606.999 127.242C607.124 126.755 607.336 125.992 607.624 125.205C608.362 122.984 609.329 120.847 610.512 118.829C611.699 116.81 613.099 114.923 614.688 113.203C615.288 112.54 615.8 111.952 616.163 111.665C616.359 111.495 616.54 111.307 616.7 111.102C616.475 111.232 616.269 111.392 616.088 111.577C615.539 112.038 615.017 112.531 614.525 113.053C611.213 116.449 608.772 120.597 607.411 125.142C607.196 125.823 607.021 126.516 606.886 127.217C606.822 127.472 606.78 127.731 606.761 127.993Z" fill="#263238"/>
<path d="M515.071 125.055C515.183 125.564 515.233 126.084 515.221 126.605C515.221 127.605 515.296 129.105 515.221 130.843C515.221 134.419 514.808 139.345 514.371 144.77C513.954 149.388 513.77 154.024 513.821 158.66C513.821 160.436 513.921 161.886 514.008 162.873C514.058 163.389 514.058 163.908 514.008 164.424C513.849 163.929 513.753 163.417 513.721 162.899C513.558 161.911 513.421 160.473 513.321 158.685C513.137 154.027 513.258 149.363 513.683 144.72C514.121 139.282 514.558 134.381 514.721 130.818C514.808 129.043 514.858 127.605 514.883 126.605C514.896 126.083 514.959 125.564 515.071 125.055Z" fill="#263238"/>
<path d="M633.878 194.204C633.315 194.585 632.721 194.92 632.103 195.204C630.94 195.816 629.29 196.729 627.277 197.942C625.264 199.155 622.889 200.617 620.126 202.055C618.738 202.768 617.263 203.48 615.713 204.155L610.887 206.156L609.399 206.768L609.599 206.406C610.662 213.119 611.575 219.133 612.2 223.471C612.5 225.559 612.737 227.284 612.912 228.597C613.036 229.218 613.094 229.851 613.087 230.485C612.901 229.88 612.763 229.261 612.675 228.634C612.437 227.322 612.137 225.609 611.762 223.546C611.012 219.22 610.024 213.219 608.949 206.518V206.256L609.187 206.156L610.675 205.556L615.5 203.568C617.051 202.905 618.513 202.218 619.889 201.517C622.652 200.13 625.039 198.692 627.09 197.542C629.14 196.392 630.84 195.516 632.091 194.979C632.691 194.691 633.153 194.504 633.478 194.366C633.803 194.229 633.866 194.179 633.878 194.204Z" fill="#263238"/>
<path d="M639.767 186.077C639.767 186.19 638.454 186.44 636.429 187.203C633.8 188.196 631.351 189.61 629.177 191.391C627.012 193.183 625.158 195.32 623.689 197.717C622.564 199.555 622.064 200.817 621.951 200.78C621.981 200.46 622.066 200.147 622.201 199.855C622.501 199.036 622.865 198.241 623.289 197.479C626.107 192.393 630.749 188.564 636.279 186.765C637.094 186.494 637.93 186.289 638.779 186.152C639.102 186.074 639.436 186.048 639.767 186.077Z" fill="#263238"/>
<path d="M597.76 232.61L624.889 167.149C626.14 164.161 624.577 161.736 621.414 161.736H615.963C613.738 161.736 612.212 160.486 612.075 158.598L611.887 156.197C611.75 154.272 610.224 153.047 607.999 153.047H582.007C579.744 153.152 577.603 154.102 576.006 155.71L573.893 157.748C572.296 159.351 570.154 160.297 567.892 160.398H534.862C533.178 160.493 531.552 161.048 530.161 162.002C528.77 162.957 527.668 164.274 526.973 165.812L500.081 232.61H597.76Z" fill="#004E89"/>
<g opacity="0.3">
<path d="M597.76 232.61L624.889 167.149C626.14 164.161 624.577 161.736 621.414 161.736H615.963C613.738 161.736 612.212 160.486 612.075 158.598L611.887 156.197C611.75 154.272 610.224 153.047 607.999 153.047H582.007C579.744 153.152 577.603 154.102 576.006 155.71L573.893 157.748C572.296 159.351 570.154 160.297 567.892 160.398H534.862C533.178 160.493 531.552 161.048 530.161 162.002C528.77 162.957 527.668 164.274 526.973 165.812L500.081 232.61H597.76Z" fill="black"/>
</g>
<path d="M602.185 210.381L612.425 170.812C613.1 168.212 611.387 165.599 609.012 165.599H528.811C527.995 165.636 527.216 165.946 526.597 166.479C525.978 167.011 525.556 167.736 525.398 168.537L510.508 228.084C509.845 230.697 510.895 232.272 513.271 232.247H594.009C594.813 232.203 595.579 231.892 596.188 231.365C596.796 230.838 597.213 230.124 597.372 229.335L602.185 210.381Z" fill="#E0E0E0"/>
<path d="M596.647 230.76L601.01 168.462C601.046 167.939 600.974 167.414 600.799 166.92C600.624 166.426 600.349 165.973 599.991 165.59C599.634 165.207 599.201 164.901 598.72 164.692C598.24 164.482 597.721 164.374 597.197 164.374H514.096V230.76H596.647Z" fill="#EBEBEB"/>
<path d="M597.572 232.247L587.758 168.012C587.525 166.988 586.949 166.074 586.126 165.422C585.303 164.769 584.282 164.417 583.232 164.424H499.106C498.35 164.416 497.605 164.596 496.936 164.948C496.268 165.3 495.697 165.813 495.277 166.441C494.856 167.069 494.599 167.791 494.527 168.544C494.456 169.296 494.573 170.054 494.868 170.75L513.021 229.509L597.572 232.247Z" fill="#FAFAFA"/>
<path d="M597.76 232.573L577.369 172.425C576.981 171.22 576.225 170.168 575.206 169.416C574.188 168.664 572.959 168.252 571.693 168.237H484.978C484.315 168.259 483.665 168.437 483.083 168.756C482.501 169.075 482.001 169.526 481.625 170.074C481.249 170.621 481.007 171.249 480.919 171.907C480.83 172.566 480.898 173.235 481.115 173.863L500.081 232.623L597.76 232.573Z" fill="#004E89"/>
<g opacity="0.3">
<path d="M555.803 222.508C555.803 222.508 559.078 222.658 560.591 222.758C567.81 223.239 575.036 221.952 581.645 219.008C583.683 218.108 585.833 216.82 586.458 214.67C587.146 212.269 585.595 209.769 583.695 208.144C581.795 206.518 579.482 205.356 577.844 203.468C576.206 201.58 575.419 198.542 577.031 196.642L577.481 196.979C578.657 199.942 581.92 201.38 584.62 203.08C589.704 206.276 593.478 211.185 595.259 216.92C596.21 220.033 596.51 223.671 594.572 226.322C593.09 228.108 591.11 229.414 588.883 230.072C582.32 232.573 575.319 232.573 568.317 232.573C566.117 232.573 559.328 232.473 559.328 232.473C557.203 231.897 556.49 230.785 555.215 228.984C553.94 227.184 554.24 223.796 555.803 222.508Z" fill="black"/>
</g>
<path d="M555.803 222.508L578.407 219.108L587.158 214.107C587.735 213.788 588.222 213.329 588.574 212.771C588.926 212.214 589.131 211.577 589.171 210.919V210.756C589.191 209.941 588.963 209.138 588.516 208.454C588.07 207.771 587.426 207.24 586.671 206.931C583.883 205.756 579.482 204.205 577.594 200.905C574.894 196.167 577.594 195.191 577.594 195.191L596.472 202.693L609.837 211.794L612.575 227.009L593.922 233.098C593.922 233.098 573.156 234.273 567.417 233.635C561.679 232.998 561.691 230.322 561.691 230.322C560.629 229.985 558.466 228.097 558.478 226.334C555.69 223.721 555.803 222.496 555.803 222.496" fill="#FFBE9D"/>
<path d="M584.72 229.034C584.402 229.059 584.088 229.117 583.783 229.209C583.195 229.359 582.332 229.547 581.282 229.76C578.507 230.306 575.694 230.64 572.868 230.76C570.046 230.863 567.221 230.746 564.417 230.41C563.329 230.285 562.467 230.16 561.916 230.06C561.604 229.994 561.286 229.961 560.966 229.96C561.266 230.072 561.576 230.156 561.891 230.21C562.479 230.36 563.342 230.522 564.392 230.685C570.039 231.524 575.793 231.3 581.357 230.022C582.42 229.772 583.27 229.547 583.858 229.359C584.154 229.278 584.443 229.169 584.72 229.034Z" fill="#EB996E"/>
<path d="M582.645 225.534C582.328 225.57 582.014 225.632 581.707 225.721C581.107 225.859 580.232 226.059 579.207 226.259C576.385 226.798 573.526 227.115 570.655 227.209C567.786 227.293 564.915 227.159 562.066 226.809C560.966 226.684 560.091 226.559 559.478 226.459C559.167 226.388 558.848 226.35 558.528 226.347C558.827 226.462 559.137 226.546 559.453 226.597C560.054 226.747 560.929 226.909 562.029 227.084C564.888 227.506 567.779 227.673 570.668 227.584C573.558 227.505 576.434 227.149 579.257 226.522C580.101 226.342 580.935 226.121 581.757 225.859C582.066 225.789 582.364 225.679 582.645 225.534Z" fill="#EB996E"/>
<path d="M650.748 311.325H366.25V522.61H650.748V311.325Z" fill="white"/>
<path d="M650.748 522.61C650.748 520.41 650.635 439.221 650.473 311.325L650.735 311.588L366.275 311.65L366.6 311.325C366.6 387.225 366.6 459.137 366.6 522.61L366.3 522.323L650.798 522.61L366.3 522.91H366V522.61C366 459.137 366 387.225 366 311.325V311H366.35L650.81 311.063H651.085V311.325C650.848 439.221 650.748 520.41 650.748 522.61Z" fill="#263238"/>
<path d="M650.748 339.392C650.748 339.58 586.987 339.73 508.474 339.73C429.961 339.73 366.2 339.58 366.2 339.392C366.2 339.205 429.886 339.067 508.474 339.067C587.062 339.067 650.748 339.217 650.748 339.392Z" fill="#E0E0E0"/>
<path d="M378.29 328.165C380.603 328.165 382.478 326.29 382.478 323.977C382.478 321.664 380.603 319.789 378.29 319.789C375.977 319.789 374.102 321.664 374.102 323.977C374.102 326.29 375.977 328.165 378.29 328.165Z" fill="#E0E0E0"/>
<path d="M390.904 328.165C393.217 328.165 395.092 326.29 395.092 323.977C395.092 321.664 393.217 319.789 390.904 319.789C388.591 319.789 386.716 321.664 386.716 323.977C386.716 326.29 388.591 328.165 390.904 328.165Z" fill="#E0E0E0"/>
<path d="M403.519 328.165C405.832 328.165 407.707 326.29 407.707 323.977C407.707 321.664 405.832 319.789 403.519 319.789C401.206 319.789 399.331 321.664 399.331 323.977C399.331 326.29 401.206 328.165 403.519 328.165Z" fill="#E0E0E0"/>
<path d="M619.417 480.091C619.417 480.091 626.356 471.002 629.619 470.652C632.882 470.302 653.373 471.002 656.186 470.652C658.999 470.302 675.214 463.463 675.214 463.463C675.214 463.463 678.09 464.438 677.715 467.001C677.34 469.564 659.412 479.266 657.249 479.628C655.086 479.991 637.871 481.253 637.871 481.253L633.545 489.005L619.417 480.091Z" fill="#A5695F"/>
<path d="M559.932 365.672C561.694 364.884 563.214 363.641 564.336 362.072C565.459 360.502 566.144 358.662 566.321 356.741C566.497 354.819 566.16 352.885 565.343 351.137C564.525 349.389 563.258 347.89 561.67 346.794L549.068 342.568C547.243 358.829 545.309 375.082 543.267 391.326C546.678 391.349 550.029 390.423 552.944 388.651C555.732 386.713 557.569 383.087 556.532 379.899C557.913 379.433 559.154 378.624 560.138 377.547C561.121 376.471 561.816 375.162 562.156 373.744C562.495 372.326 562.47 370.845 562.081 369.44C561.692 368.035 560.953 366.751 559.932 365.709V365.672Z" fill="#263238"/>
<path d="M498.135 356.132L498.61 350.344L534.003 347.281C544.83 347.281 555.257 359.158 554.882 369.96C554.419 381.974 553.381 396.627 551.056 405.391C546.38 423.006 532.428 423.881 532.428 423.881L531.178 441.634C530.24 451.986 521.314 453.374 510.962 452.449C506.095 452.012 501.589 449.701 498.396 446.003C495.202 442.305 493.571 437.511 493.846 432.633L498.135 356.132Z" fill="#A5695F"/>
<path d="M549.281 382.737C549.224 383.345 548.929 383.907 548.461 384.3C547.993 384.693 547.39 384.886 546.78 384.837C546.486 384.825 546.198 384.753 545.932 384.628C545.665 384.502 545.427 384.325 545.23 384.106C545.034 383.887 544.882 383.631 544.786 383.353C544.689 383.075 544.649 382.781 544.667 382.487C544.722 381.877 545.015 381.314 545.484 380.92C545.952 380.526 546.558 380.335 547.168 380.387C547.462 380.399 547.75 380.47 548.017 380.596C548.283 380.722 548.521 380.899 548.718 381.118C548.915 381.337 549.066 381.593 549.162 381.871C549.259 382.149 549.299 382.443 549.281 382.737Z" fill="#263238"/>
<path d="M550.318 377.186C550.006 377.449 548.393 375.936 545.93 375.748C543.467 375.561 541.517 376.548 541.279 376.223C541.042 375.898 541.504 375.561 542.355 375.061C543.499 374.435 544.808 374.173 546.105 374.311C547.387 374.443 548.595 374.977 549.556 375.836C550.268 376.486 550.481 377.061 550.318 377.186Z" fill="#263238"/>
<path d="M526.189 381.249C526.132 381.857 525.837 382.417 525.369 382.808C524.9 383.199 524.296 383.389 523.689 383.337C523.394 383.331 523.103 383.266 522.834 383.145C522.564 383.025 522.322 382.852 522.12 382.636C521.919 382.421 521.762 382.167 521.66 381.89C521.558 381.613 521.512 381.319 521.526 381.024C521.583 380.417 521.878 379.857 522.346 379.466C522.814 379.074 523.418 378.884 524.026 378.936C524.321 378.943 524.612 379.008 524.881 379.128C525.151 379.249 525.393 379.422 525.595 379.637C525.796 379.853 525.953 380.107 526.055 380.383C526.157 380.66 526.202 380.955 526.189 381.249Z" fill="#263238"/>
<path d="M525.977 375.161C525.664 375.436 524.051 373.973 521.588 373.723C519.125 373.473 517.175 374.536 516.938 374.198C516.7 373.86 517.163 373.548 518.013 373.048C519.155 372.416 520.466 372.154 521.763 372.298C523.051 372.422 524.265 372.957 525.226 373.823C525.914 374.473 526.139 375.048 525.977 375.161Z" fill="#263238"/>
<path d="M533.078 394.414C534.422 394.132 535.795 394.023 537.166 394.089C537.804 394.089 538.416 394.026 538.567 393.614C538.689 392.968 538.61 392.301 538.341 391.701L536.966 386.7C535.066 379.599 533.766 373.773 534.053 373.698C534.341 373.623 536.104 379.324 538.004 386.438L539.254 391.438C539.572 392.237 539.598 393.122 539.329 393.939C539.217 394.152 539.057 394.336 538.862 394.477C538.667 394.618 538.441 394.712 538.204 394.752C537.843 394.8 537.477 394.8 537.116 394.752C535.761 394.808 534.405 394.695 533.078 394.414Z" fill="#263238"/>
<path d="M532.415 423.994C523.77 423.241 515.493 420.146 508.474 415.042C508.474 415.042 513.237 428.195 531.94 428.457L532.415 423.994Z" fill="#83534B"/>
<path d="M527.252 368.247C526.939 368.885 524.501 368.322 521.563 368.372C518.625 368.422 516.2 368.972 515.888 368.372C515.737 368.072 516.213 367.472 517.225 366.922C518.566 366.243 520.048 365.887 521.551 365.884C523.053 365.857 524.54 366.187 525.889 366.847C526.902 367.347 527.389 367.935 527.252 368.247Z" fill="#263238"/>
<path d="M551.119 368.697C550.618 369.222 548.981 368.46 546.93 368.222C544.88 367.985 543.117 368.222 542.78 367.584C542.63 367.284 542.955 366.747 543.767 366.334C544.851 365.8 546.07 365.6 547.267 365.76C548.465 365.921 549.588 366.434 550.493 367.234C551.156 367.847 551.331 368.447 551.119 368.697Z" fill="#263238"/>
<path d="M562.808 354.57C564.707 353.472 566.241 351.841 567.219 349.878C568.197 347.915 568.576 345.707 568.309 343.53C567.918 340.914 566.72 338.485 564.882 336.582C563.044 334.679 560.658 333.397 558.057 332.916C556.471 331.746 554.612 331.001 552.656 330.753C552.546 329.587 552.1 328.477 551.372 327.558C550.644 326.64 549.666 325.952 548.555 325.577C546.319 324.879 543.947 324.734 541.642 325.152C540.64 323.604 539.287 322.314 537.693 321.386C536.1 320.459 534.31 319.919 532.469 319.812C530.628 319.705 528.788 320.033 527.097 320.77C525.407 321.506 523.914 322.631 522.739 324.052C521.536 323.162 520.143 322.565 518.669 322.309C517.196 322.052 515.682 322.143 514.25 322.574C512.818 323.005 511.506 323.764 510.418 324.791C509.331 325.818 508.498 327.085 507.986 328.49C506.687 328.397 505.382 328.571 504.152 329.001C502.922 329.431 501.793 330.108 500.835 330.991C499.333 332.728 498.037 334.632 496.972 336.667C494.759 336.683 492.604 337.379 490.799 338.659C488.994 339.939 487.625 341.741 486.876 343.824C486.128 345.907 486.037 348.169 486.615 350.305C487.193 352.441 488.412 354.349 490.108 355.77C488.905 356.73 487.944 357.958 487.3 359.356C486.657 360.755 486.35 362.284 486.403 363.822C486.457 365.36 486.869 366.865 487.608 368.215C488.347 369.565 489.392 370.723 490.658 371.598C489.979 373.177 489.628 374.879 489.628 376.598C489.628 378.318 489.979 380.02 490.658 381.599C491.192 382.987 492.202 384.14 493.509 384.85C493.543 385.093 493.615 385.329 493.721 385.55C494.621 387.338 497.322 386.875 499.01 385.8C503.098 383.175 505.611 378.661 507.174 374.061C508.736 369.46 509.486 364.609 510.999 359.996L511.112 359.671C511.742 357.753 512.807 356.007 514.225 354.57C515.476 355.736 516.818 356.802 518.238 357.758C520.859 359.33 523.913 360.024 526.956 359.739C529.999 359.453 532.871 358.203 535.153 356.17C538.567 359.682 543.099 361.892 547.968 362.421C552.781 362.921 557.644 362.509 561.658 359.796C562.699 359.1 563.529 358.131 564.058 356.995C564.184 356.508 564.125 355.992 563.895 355.544C563.664 355.097 563.278 354.75 562.808 354.57Z" fill="#263238"/>
<path d="M498.61 380.099C498.385 379.962 489.371 375.436 487.908 385.212C486.445 394.989 496.559 394.426 496.659 394.151C496.759 393.876 498.61 380.099 498.61 380.099Z" fill="#A5695F"/>
<path d="M494.184 390.001C494.184 390.001 493.996 390.101 493.696 390.188C493.274 390.294 492.827 390.236 492.446 390.026C491.471 389.488 490.846 387.725 491.058 385.95C491.152 385.108 491.439 384.3 491.896 383.587C492.034 383.296 492.24 383.043 492.497 382.849C492.754 382.655 493.054 382.527 493.371 382.474C493.574 382.453 493.778 382.503 493.949 382.614C494.12 382.726 494.247 382.893 494.309 383.087C494.396 383.387 494.309 383.562 494.309 383.587C494.309 383.612 494.534 383.462 494.522 383.05C494.504 382.796 494.398 382.557 494.221 382.374C494.105 382.252 493.966 382.155 493.811 382.089C493.656 382.022 493.49 381.987 493.321 381.987C492.908 382.004 492.507 382.129 492.156 382.348C491.805 382.567 491.518 382.873 491.321 383.237C490.781 384.023 490.437 384.928 490.321 385.875C490.096 387.85 490.821 389.838 492.171 390.463C492.421 390.581 492.695 390.643 492.971 390.643C493.248 390.643 493.521 390.581 493.771 390.463C494.134 390.238 494.221 390.026 494.184 390.001Z" fill="#83534B"/>
<path d="M567.984 341.855C567.988 341.939 567.988 342.022 567.984 342.105C568.036 342.344 568.066 342.586 568.071 342.83C568.125 343.767 567.998 344.705 567.696 345.593C567.238 347.005 566.367 348.246 565.196 349.156C563.629 350.351 561.668 350.909 559.707 350.719L559.895 350.582C559.034 353.689 557.298 356.484 554.894 358.633C553.543 359.868 551.945 360.802 550.206 361.371C548.343 361.942 546.361 362.003 544.467 361.546C542.615 361.14 540.833 360.461 539.179 359.533C537.592 358.71 536.168 357.604 534.978 356.27H535.266C532.724 358.232 529.701 359.476 526.514 359.871C523.991 360.041 521.468 359.527 519.213 358.383C517.743 357.649 516.408 356.673 515.262 355.495C514.958 355.185 514.67 354.86 514.4 354.52C514.294 354.409 514.206 354.282 514.137 354.145C514.137 354.145 514.537 354.607 515.387 355.395C516.553 356.517 517.891 357.446 519.351 358.145C521.573 359.219 524.04 359.689 526.502 359.508C529.614 359.092 532.56 357.858 535.041 355.933L535.203 355.808L535.328 355.97C536.494 357.251 537.878 358.313 539.416 359.108C541.033 360.01 542.772 360.671 544.58 361.071C546.398 361.511 548.301 361.459 550.093 360.921C551.778 360.364 553.328 359.462 554.644 358.27C557.014 356.189 558.748 353.481 559.645 350.457V350.307H559.795C561.672 350.516 563.559 350.002 565.071 348.869C566.222 348.007 567.092 346.824 567.571 345.468C567.881 344.606 568.038 343.697 568.034 342.78C568.009 342.193 567.959 341.855 567.984 341.855Z" fill="#455A64"/>
<path d="M498.41 336.304C497.91 337.354 497.493 338.441 497.159 339.555C496.351 342.499 496.518 345.627 497.635 348.469L497.697 348.619L497.56 348.719C496.216 349.637 495.141 350.897 494.447 352.369C493.678 353.988 493.425 355.803 493.721 357.57C494.123 359.856 495.379 361.903 497.235 363.296L497.41 363.421L497.285 363.596C496.106 365.368 495.444 367.433 495.372 369.56C495.301 371.265 495.577 372.966 496.184 374.561C496.758 375.951 497.547 377.242 498.522 378.386C498.442 378.325 498.367 378.258 498.297 378.186C498.077 377.981 497.869 377.764 497.672 377.536C496.951 376.671 496.365 375.701 495.934 374.661C495.28 373.077 494.965 371.373 495.009 369.66C495.047 367.455 495.715 365.308 496.934 363.471V363.759C494.956 362.318 493.612 360.167 493.184 357.758C492.87 355.9 493.141 353.991 493.959 352.294C494.691 350.771 495.823 349.474 497.235 348.544L497.159 348.781C496.034 345.861 495.92 342.648 496.834 339.655C497.092 338.819 497.432 338.011 497.847 337.242C497.997 336.979 498.122 336.779 498.21 336.654C498.297 336.529 498.41 336.292 498.41 336.304Z" fill="#455A64"/>
<path d="M491.458 393.126C491.254 393.688 491.112 394.271 491.033 394.864C490.989 395.482 491.162 396.096 491.521 396.602C491.747 396.893 492.043 397.123 492.382 397.27C492.721 397.416 493.091 397.475 493.459 397.439C493.816 397.37 494.145 397.195 494.401 396.936C494.658 396.677 494.83 396.347 494.896 395.989C495.03 395.37 494.996 394.727 494.796 394.126C494.446 393.076 494.096 392.451 494.171 392.426C494.584 392.892 494.898 393.436 495.096 394.026C495.362 394.68 495.431 395.397 495.296 396.089C495.209 396.508 495.02 396.899 494.746 397.227C494.423 397.592 493.979 397.827 493.496 397.889C493.051 397.941 492.6 397.871 492.191 397.689C491.782 397.506 491.43 397.217 491.171 396.852C490.767 396.263 490.598 395.546 490.696 394.839C490.734 394.194 491.005 393.586 491.458 393.126Z" fill="#263238"/>
<path d="M526.652 397.34C526.098 397.815 525.667 398.417 525.396 399.095C525.124 399.773 525.02 400.506 525.093 401.232C525.165 401.959 525.412 402.657 525.811 403.268C526.211 403.878 526.752 404.384 527.389 404.741C527.885 405.052 528.47 405.188 529.052 405.128C530.065 404.978 530.752 404.041 531.327 403.19L532.753 401.078C532.848 400.969 532.92 400.842 532.965 400.704C533.011 400.567 533.027 400.422 533.015 400.277C532.94 399.977 532.628 399.815 532.353 399.677L526.889 397.064" fill="#83534B"/>
<path d="M528.99 404.816C528.093 404.745 527.23 404.439 526.489 403.928C525.583 403.411 524.904 402.572 524.589 401.578C524.401 400.975 524.401 400.33 524.589 399.727C524.918 398.468 525.726 397.388 526.839 396.714L527.014 396.614L527.189 396.714C530.715 398.877 533.553 400.19 533.44 400.352C531.087 399.681 528.848 398.657 526.802 397.314H527.164C526.706 397.602 526.303 397.97 525.977 398.402C525.633 398.762 525.376 399.194 525.224 399.668C525.072 400.141 525.029 400.642 525.099 401.135C525.169 401.627 525.349 402.097 525.627 402.509C525.905 402.921 526.272 403.266 526.702 403.515C528.027 404.403 529.04 404.703 528.99 404.816Z" fill="#263238"/>
<path d="M398.255 522.685C398.255 522.685 433.811 458.925 439.737 448.611C446.701 436.484 452.764 432.083 458.215 429.432C463.967 426.72 470.247 425.315 476.606 425.319L494.246 425.182C494.246 425.182 500.948 435.183 510.037 437.184C522.539 439.884 531.953 430.595 531.953 430.595L557.282 440.972L552.169 487.755C550.887 499.551 546.581 510.817 539.666 520.46L537.991 522.635L444.601 522.548L455.427 488.855L435.424 522.61L398.255 522.685Z" fill="#455A64"/>
<path d="M557.282 440.972C557.282 440.972 564.646 445.297 570.197 463.225C575.748 481.153 587.7 513.046 587.7 513.046L617.705 479.003L635.508 490.255C635.508 490.255 606.753 540.113 602.227 546.014C595.426 554.766 578.236 559.842 568.146 548.152C560.82 539.651 543.28 498.519 543.28 498.519L557.282 440.972Z" fill="#455A64"/>
<path d="M546.48 466.964C546.48 466.964 546.605 467.139 546.768 467.501C546.93 467.864 547.168 468.389 547.43 469.089C548.204 471.069 548.843 473.099 549.343 475.165C552.745 488.962 550.528 503.546 543.179 515.709C542.086 517.526 540.88 519.271 539.566 520.935C539.104 521.523 538.704 521.948 538.454 522.185C538.204 522.423 538.041 522.635 538.016 522.623C538.422 521.958 538.869 521.319 539.354 520.71C540.596 519.01 541.74 517.24 542.779 515.409C549.807 503.273 551.99 488.93 548.893 475.253C548.436 473.194 547.869 471.161 547.193 469.164C546.91 468.446 546.672 467.711 546.48 466.964Z" fill="#263238"/>
<path d="M461.266 461.238C461.294 461.453 461.294 461.672 461.266 461.888C461.203 462.388 461.116 463 461.016 463.738C460.791 465.351 460.403 467.664 459.878 470.514C458.84 476.215 457.14 484.054 454.79 492.593C452.439 501.132 449.876 508.733 447.863 514.171C446.851 516.884 446.001 519.072 445.363 520.572L444.625 522.285C444.547 522.489 444.451 522.686 444.338 522.873C444.362 522.654 444.417 522.439 444.5 522.235C444.675 521.773 444.875 521.185 445.126 520.485L447.413 514.009C449.326 508.545 451.802 500.944 454.152 492.418C456.502 483.891 458.253 476.103 459.415 470.427L460.753 463.7L461.128 461.875C461.141 461.657 461.188 461.442 461.266 461.238Z" fill="#263238"/>
<path d="M416.596 522.623C416.596 522.623 419.996 518.01 421.672 517.134C423.347 516.259 425.647 516.284 426.672 517.197L427.685 518.097C427.685 518.097 432.948 515.734 435.486 517.56C435.486 517.56 440.487 515.184 442.9 517.897C442.9 517.897 446.763 515.397 448.401 517.572C450.039 519.747 449.864 523.473 449.076 525.386C448.288 527.299 446.801 533.8 445.651 533.912C445.651 533.912 442.575 534.237 442.162 532.575C441.75 530.912 441.575 530.074 441.575 530.074C441.575 530.074 440.4 535.963 438.974 536.25C437.549 536.538 434.849 536.388 434.761 533.75C434.761 533.75 433.449 535.713 432.161 535.137C430.873 534.562 429.285 533.625 429.423 532.024C429.56 530.424 429.585 528.836 429.585 528.836C429.585 528.836 428.885 531.162 427.723 530.662C426.56 530.162 425.385 530.262 424.735 528.286C424.084 526.311 422.459 522.535 422.459 522.535L416.596 522.623Z" fill="#A5695F"/>
<path d="M429.473 528.786C429.398 528.786 429.711 528.149 429.986 527.123C430.334 525.788 430.39 524.394 430.148 523.035C429.888 521.681 429.333 520.401 428.523 519.285C427.911 518.422 427.41 517.972 427.46 517.909C427.997 518.183 428.461 518.582 428.811 519.072C429.752 520.181 430.385 521.517 430.649 522.948C430.912 524.381 430.8 525.859 430.323 527.236C430.174 527.816 429.882 528.349 429.473 528.786Z" fill="#83534B"/>
<path d="M435.799 517.584C436.144 518.32 436.372 519.104 436.474 519.91C437.204 523.764 436.937 527.74 435.699 531.462C435.484 532.243 435.155 532.988 434.724 533.675C435.514 531.074 436.05 528.403 436.324 525.698C436.42 522.983 436.244 520.265 435.799 517.584Z" fill="#83534B"/>
<path d="M443.013 517.972C443.381 520.038 443.407 522.15 443.088 524.223C442.936 526.31 442.433 528.355 441.6 530.274C441.45 530.274 442.2 527.549 442.575 524.161C442.95 520.773 442.863 517.985 443.013 517.972Z" fill="#83534B"/>
<path d="M462.741 519.31C462.615 519.042 462.431 518.807 462.201 518.621C461.972 518.434 461.703 518.302 461.416 518.234C460.743 518.082 460.043 518.096 459.376 518.274C458.71 518.453 458.097 518.791 457.59 519.26C456.491 520.257 455.551 521.416 454.802 522.698H462.303C462.153 521.51 463.154 520.372 462.741 519.31Z" fill="#A5695F"/>
<path d="M655.711 415.605H695.817C695.82 423.535 693.472 431.287 689.069 437.883C684.667 444.478 678.409 449.621 671.085 452.66C663.761 455.7 655.7 456.5 647.921 454.96C640.143 453.42 632.995 449.609 627.382 444.008C621.769 438.407 617.942 431.268 616.385 423.492C614.828 415.717 615.611 407.655 618.634 400.324C621.658 392.994 626.787 386.724 633.373 382.307C639.959 377.891 647.706 375.526 655.636 375.511L655.711 415.605Z" fill="#004E89"/>
<path d="M662.85 409.167L662.725 369.06H662.85C673.44 369.109 683.585 373.326 691.089 380.8C698.593 388.273 702.852 398.401 702.944 408.991L662.85 409.167Z" fill="#004E89"/>
<path d="M218.459 181.652C223.034 183.427 226.845 186.743 229.236 191.028C233.286 198.192 232.199 201.73 231.149 205.968C230.098 210.206 228.223 218.62 228.123 218.07C228.023 217.52 218.459 181.652 218.459 181.652Z" fill="#FFBE9D"/>
<path d="M339.004 94.312H47.8428V310.548H339.004V94.312Z" fill="white"/>
<path d="M338.967 310.548C338.967 308.348 338.867 225.209 338.704 94.2621L338.967 94.5247L47.843 94.5872L48.1681 94.2621C48.1681 171.938 48.1681 245.537 48.1681 310.548L47.8805 310.261L339.029 310.548L47.8805 310.848H47.543V310.548C47.543 245.537 47.543 171.988 47.543 94.2621V93.9871H47.893H339.017H339.292V94.2621C339.104 225.209 338.967 308.348 338.967 310.548Z" fill="#263238"/>
<path d="M338.504 124.492C338.504 124.667 273.968 124.817 194.368 124.817C114.767 124.817 50.231 124.717 50.231 124.492C50.231 124.267 114.754 124.167 194.368 124.167C273.981 124.167 338.504 124.355 338.504 124.492Z" fill="#E0E0E0"/>
<path d="M66.8835 108.752C66.8884 109.601 66.6412 110.433 66.173 111.141C65.7048 111.85 65.0368 112.403 64.2537 112.732C63.4706 113.06 62.6076 113.148 61.7741 112.986C60.9406 112.823 60.1742 112.417 59.572 111.818C58.9698 111.219 58.5589 110.455 58.3914 109.623C58.2239 108.79 58.3073 107.927 58.6311 107.142C58.955 106.357 59.5046 105.686 60.2103 105.213C60.916 104.741 61.7461 104.489 62.5953 104.489C63.7283 104.489 64.8152 104.937 65.6187 105.736C66.4222 106.535 66.8769 107.619 66.8835 108.752Z" fill="#E0E0E0"/>
<path d="M79.7858 108.752C79.7908 109.602 79.5432 110.434 79.0745 111.142C78.6057 111.851 77.937 112.405 77.1531 112.733C76.3693 113.061 75.5057 113.149 74.6718 112.985C73.838 112.821 73.0716 112.414 72.4699 111.814C71.8682 111.214 71.4583 110.448 71.2922 109.615C71.1261 108.782 71.2113 107.918 71.5371 107.133C71.8628 106.348 72.4144 105.678 73.1217 105.207C73.8291 104.736 74.6604 104.486 75.5101 104.489C76.6419 104.489 77.7276 104.938 78.5291 105.737C79.3306 106.536 79.7825 107.62 79.7858 108.752Z" fill="#E0E0E0"/>
<path d="M92.6755 108.752C92.6804 109.602 92.4325 110.435 91.9632 111.144C91.4939 111.853 90.8245 112.406 90.0399 112.734C89.2553 113.062 88.391 113.149 87.5569 112.984C86.7227 112.819 85.9563 112.41 85.3551 111.809C84.7539 111.208 84.345 110.442 84.1803 109.607C84.0156 108.773 84.1027 107.909 84.4303 107.124C84.758 106.34 85.3115 105.67 86.0205 105.201C86.7295 104.732 87.562 104.484 88.4123 104.489C89.5409 104.495 90.6215 104.947 91.4196 105.745C92.2177 106.543 92.6689 107.623 92.6755 108.752Z" fill="#E0E0E0"/>
<path d="M208.945 89.4863C207.982 85.9732 206.069 82.5226 202.906 80.7348C201.418 79.8597 199.718 79.3846 198.193 78.5594C196.435 77.4232 194.741 76.192 193.117 74.8713C190.995 73.4016 188.584 72.4035 186.044 71.9443C183.504 71.485 180.895 71.5754 178.393 72.2091C175.891 72.8429 173.554 74.0054 171.539 75.6184C169.525 77.2314 167.879 79.2574 166.713 81.5599C163.162 78.847 156.999 79.9972 152.798 81.5599C148.597 83.1227 145.084 88.0735 144.046 92.4243L163.8 98.2377C167.639 102.65 172.185 106.394 177.252 109.315C182.362 112.244 188.283 113.441 194.13 112.728C197.027 112.346 199.794 111.289 202.207 109.64C204.62 107.992 206.611 105.799 208.02 103.239C209.999 98.9219 210.329 94.0292 208.945 89.4863Z" fill="#263238"/>
<path d="M222.947 154.685C225.399 152.835 227.032 150.102 227.499 147.066C227.966 144.031 227.23 140.933 225.448 138.432C224.335 136.994 222.822 135.681 222.572 133.881C222.527 132.765 222.688 131.65 223.048 130.593C223.881 126.955 223.652 123.154 222.386 119.643C221.12 116.132 218.872 113.059 215.909 110.79C215.796 106.752 213.533 98.2128 208.408 94.9497L185.104 98.2378C186.162 122.767 186.091 147.3 184.891 171.838C184.704 175.588 184.566 179.639 186.629 182.789C189.542 187.265 195.618 188.19 200.944 188.328C206.048 188.65 211.168 188.049 216.059 186.552C220.872 184.865 225.31 181.552 227.311 176.838C230.424 169.65 227.223 161.273 222.947 154.685Z" fill="#263238"/>
<path d="M151.935 105.089L151.235 99.8755L181.953 90.2864C191.517 88.1485 203.107 96.6499 204.844 106.302C206.757 117.016 208.682 130.181 208.332 138.382C207.62 154.885 195.443 158.385 195.443 158.385L196.693 168.162C197.298 172.916 195.991 177.717 193.058 181.508C190.125 185.299 185.807 187.77 181.053 188.378C176.311 188.984 171.522 187.687 167.735 184.769C163.949 181.852 161.472 177.552 160.849 172.813L151.935 105.089Z" fill="#FFBE9D"/>
<path d="M202.694 118.429C202.762 118.97 202.616 119.516 202.286 119.95C201.957 120.385 201.47 120.673 200.931 120.754C200.67 120.804 200.401 120.802 200.141 120.747C199.88 120.693 199.633 120.586 199.415 120.435C199.196 120.284 199.009 120.09 198.866 119.866C198.723 119.642 198.626 119.391 198.581 119.129C198.513 118.588 198.659 118.041 198.988 117.607C199.318 117.172 199.804 116.884 200.344 116.803C200.605 116.749 200.875 116.749 201.137 116.802C201.399 116.855 201.647 116.961 201.866 117.113C202.086 117.265 202.273 117.46 202.415 117.686C202.557 117.912 202.652 118.165 202.694 118.429Z" fill="#263238"/>
<path d="M202.207 113.578C201.981 113.878 200.269 112.89 198.031 113.153C195.793 113.415 194.28 114.728 194.018 114.478C193.755 114.228 194.093 113.853 194.743 113.228C195.631 112.444 196.74 111.954 197.918 111.827C199.083 111.69 200.26 111.926 201.281 112.503C202.031 112.978 202.319 113.44 202.207 113.578Z" fill="#263238"/>
<path d="M181.865 121.266C181.933 121.807 181.787 122.354 181.458 122.788C181.128 123.223 180.642 123.511 180.103 123.592C179.839 123.65 179.566 123.655 179.3 123.605C179.035 123.556 178.782 123.453 178.557 123.304C178.331 123.154 178.139 122.961 177.99 122.736C177.841 122.51 177.739 122.257 177.69 121.992C177.622 121.451 177.768 120.904 178.097 120.47C178.427 120.035 178.913 119.747 179.452 119.666C179.717 119.604 179.99 119.597 180.257 119.645C180.524 119.693 180.779 119.795 181.005 119.945C181.231 120.095 181.424 120.289 181.572 120.517C181.72 120.744 181.82 120.999 181.865 121.266Z" fill="#263238"/>
<path d="M180.278 116.516C180.053 116.816 178.34 115.841 176.102 116.103C173.864 116.366 172.351 117.666 172.089 117.354C171.826 117.041 172.089 116.728 172.814 116.103C173.702 115.322 174.812 114.837 175.989 114.716C177.152 114.574 178.33 114.806 179.352 115.378C180.103 115.916 180.39 116.378 180.278 116.516Z" fill="#263238"/>
<path d="M190.292 132.168C191.43 131.664 192.627 131.302 193.855 131.093C194.417 130.968 194.943 130.793 194.993 130.393C194.971 129.798 194.771 129.223 194.417 128.743C193.73 127.418 192.992 126.042 192.23 124.592C189.179 118.666 186.891 113.778 187.129 113.653C187.366 113.528 190.042 118.229 193.105 124.155L195.218 128.343C195.661 128.986 195.86 129.766 195.78 130.543C195.719 130.755 195.61 130.95 195.463 131.115C195.316 131.279 195.134 131.409 194.93 131.493C194.624 131.614 194.305 131.698 193.98 131.743C192.773 132.037 191.534 132.179 190.292 132.168Z" fill="#263238"/>
<path d="M195.443 158.41C187.65 159.431 179.727 158.307 172.526 155.16C172.526 155.16 179.303 165.874 195.893 162.461L195.443 158.41Z" fill="#EB996E"/>
<path d="M189.967 137.657C189.482 137.177 188.884 136.827 188.229 136.64C187.574 136.452 186.881 136.432 186.216 136.582C185.729 136.684 185.266 136.883 184.856 137.166C184.446 137.45 184.097 137.812 183.828 138.232C183.573 138.639 183.448 139.115 183.471 139.595C183.493 140.076 183.661 140.538 183.953 140.92C184.359 141.283 184.864 141.516 185.403 141.59C185.942 141.663 186.491 141.573 186.979 141.332C187.988 140.828 188.891 140.136 189.642 139.294C189.871 139.083 190.061 138.834 190.204 138.557C190.271 138.425 190.297 138.276 190.279 138.129C190.261 137.982 190.2 137.844 190.104 137.732" fill="#EB996E"/>
<path d="M183.941 134.494C184.303 134.494 184.591 136.857 186.866 138.344C189.141 139.832 191.692 139.257 191.754 139.595C191.754 139.745 191.229 140.132 190.142 140.295C188.723 140.464 187.289 140.142 186.078 139.382C184.92 138.639 184.099 137.472 183.791 136.131C183.528 135.106 183.728 134.494 183.941 134.494Z" fill="#263238"/>
<path d="M179.84 107.689C179.69 108.327 177.427 108.289 174.839 108.94C172.251 109.59 170.214 110.527 169.839 110.015C169.651 109.777 169.964 109.165 170.751 108.477C171.802 107.608 173.045 107.004 174.377 106.714C175.7 106.398 177.079 106.398 178.402 106.714C179.365 106.989 179.903 107.389 179.84 107.689Z" fill="#263238"/>
<path d="M200.644 107.202C200.306 107.752 198.706 107.402 196.893 107.589C195.08 107.777 193.517 108.327 193.142 107.827C192.955 107.589 193.142 107.052 193.78 106.502C194.633 105.819 195.67 105.405 196.759 105.314C197.848 105.223 198.939 105.458 199.894 105.989C200.506 106.427 200.781 106.989 200.644 107.202Z" fill="#263238"/>
<path d="M155.424 88.8237C152.236 89.8614 148.635 98.5503 149.573 101.776C150.129 103.361 151.08 104.777 152.335 105.893C153.591 107.009 155.11 107.786 156.749 108.152C160.05 108.841 163.477 108.621 166.663 107.514C171.201 106.127 175.99 103.001 176.302 98.2753C178.548 100.484 181.321 102.082 184.359 102.915C187.396 103.749 190.597 103.792 193.655 103.039C199.731 101.476 204.232 92.1742 205.932 86.1357L155.424 88.8237Z" fill="#263238"/>
<path d="M186.866 121.354C186.791 121.354 186.866 120.529 186.453 119.141C185.909 117.179 184.731 115.451 183.103 114.228C181.399 112.924 179.282 112.28 177.141 112.413C175 112.546 172.979 113.448 171.45 114.953C169.921 116.457 168.987 118.463 168.819 120.602C168.652 122.741 169.262 124.868 170.538 126.592C171.525 127.935 172.867 128.976 174.413 129.597C175.959 130.218 177.649 130.394 179.29 130.106C180.65 129.857 181.933 129.296 183.04 128.468C184.671 127.252 185.85 125.527 186.391 123.567C186.766 122.167 186.728 121.354 186.803 121.354C186.836 121.549 186.836 121.747 186.803 121.942C186.805 122.51 186.738 123.077 186.603 123.629C186.197 125.376 185.294 126.968 184.003 128.212C182.711 129.457 181.088 130.301 179.327 130.643C177.657 130.968 175.93 130.839 174.326 130.268C172.55 129.643 171.007 128.491 169.901 126.968C168.689 125.342 168.035 123.369 168.035 121.342C168.035 119.314 168.689 117.341 169.901 115.716C170.961 114.278 172.407 113.171 174.071 112.522C175.735 111.874 177.549 111.711 179.302 112.053C181.063 112.394 182.686 113.239 183.978 114.483C185.269 115.728 186.172 117.32 186.578 119.066C186.713 119.619 186.78 120.185 186.778 120.754C186.842 120.948 186.871 121.151 186.866 121.354Z" fill="#455A64"/>
<path d="M209.87 117.203C209.795 117.203 209.87 116.391 209.458 114.991C208.922 113.028 207.742 111.302 206.107 110.09C204.914 109.193 203.516 108.61 202.04 108.391C200.564 108.173 199.057 108.327 197.656 108.839C196.005 109.437 194.572 110.517 193.543 111.94C192.729 113.055 192.185 114.344 191.955 115.706C191.725 117.067 191.815 118.463 192.218 119.784C192.62 121.105 193.325 122.314 194.275 123.315C195.225 124.317 196.396 125.083 197.693 125.555C198.869 125.982 200.12 126.161 201.368 126.079C202.616 125.997 203.834 125.657 204.944 125.08C206.053 124.503 207.031 123.701 207.815 122.726C208.598 121.751 209.17 120.624 209.495 119.416C209.87 118.029 209.833 117.203 209.908 117.203C209.94 117.398 209.94 117.596 209.908 117.791C209.91 118.36 209.842 118.926 209.708 119.479C209.301 121.225 208.398 122.817 207.107 124.062C205.816 125.306 204.192 126.15 202.432 126.492C200.678 126.834 198.864 126.671 197.2 126.023C195.536 125.374 194.09 124.267 193.03 122.829C191.826 121.201 191.176 119.229 191.176 117.203C191.176 115.178 191.826 113.206 193.03 111.577C194.139 110.059 195.682 108.913 197.456 108.289C199.058 107.715 200.785 107.581 202.457 107.902C204.217 108.244 205.841 109.088 207.132 110.333C208.423 111.577 209.326 113.169 209.733 114.916C209.868 115.468 209.935 116.035 209.933 116.603C209.946 116.805 209.925 117.008 209.87 117.203Z" fill="#455A64"/>
<path d="M185.491 116.291C185.416 116.291 185.403 115.853 185.703 115.253C186.123 114.463 186.838 113.87 187.692 113.603C188.547 113.336 189.472 113.417 190.267 113.828C190.854 114.153 191.092 114.515 191.029 114.565C190.967 114.615 190.642 114.428 190.079 114.253C189.367 114.031 188.604 114.031 187.891 114.253C187.18 114.481 186.553 114.916 186.091 115.503C185.741 115.966 185.591 116.316 185.491 116.291Z" fill="#455A64"/>
<path d="M168.175 123.53C167.087 124.228 165.892 124.743 164.637 125.055C163.448 125.569 162.18 125.878 160.887 125.967C163.158 124.729 165.622 123.884 168.175 123.467V123.53Z" fill="#455A64"/>
<path d="M327.427 151.522C327.787 151.381 328.115 151.168 328.392 150.898C328.668 150.627 328.886 150.304 329.035 149.946C329.183 149.589 329.258 149.206 329.254 148.819C329.251 148.433 329.17 148.051 329.015 147.696L319.014 150.697C321.846 149.561 324.536 148.096 327.027 146.333C329.74 144.108 328.39 142.183 328.39 142.183L318.101 146.146L312.275 149.571L297.71 171.813C297.71 171.813 309.099 177.376 311.112 175.776C314.65 172.95 316.588 166.649 317.363 163.449C319.812 162.827 322.201 161.991 324.502 160.948C325.401 160.331 326.135 159.502 326.64 158.535L318.713 160.048C319.864 159.711 327.215 157.198 327.79 156.297C328.815 154.71 328.178 154.01 328.178 154.01L318.176 155.56L319.201 154.81C319.201 154.81 324.839 152.522 327.427 151.522Z" fill="#FFBE9D"/>
<path d="M290.746 174.676L257.228 205.368C253.065 204.405 202.031 173.9 202.031 173.9L193.942 213.157C193.942 213.157 246.176 237.173 260.554 234.26C262.904 233.785 266.805 233.485 269.18 230.372C280.682 215.595 305.073 179.026 305.073 179.026L290.746 174.676Z" fill="#FFBE9D"/>
<path d="M313.525 173.138L307.474 170.225L311.837 162.298L315.263 155.06L320.576 145.196L312.487 148.246C311.511 148.648 310.652 149.289 309.987 150.109L296.672 168.499L290.821 174.5L296.46 189.841L303.161 179.389L307.074 178.476C311.05 177.563 313.525 173.138 313.525 173.138Z" fill="#FFBE9D"/>
<path d="M303.798 160.748C306.579 159.348 309.483 158.21 312.475 157.348C313.438 157.016 314.459 156.884 315.475 156.96C315.983 157.013 316.465 157.208 316.867 157.522C317.269 157.836 317.575 158.256 317.751 158.735C317.845 159.306 317.763 159.893 317.515 160.415C317.267 160.938 316.865 161.373 316.363 161.661C315.343 162.215 314.242 162.604 313.1 162.811C311.956 163.018 310.904 163.572 310.087 164.399C309.503 165.312 309.08 166.318 308.837 167.374C308.222 169.041 307.192 170.523 305.844 171.68C304.496 172.838 302.876 173.632 301.135 173.988" fill="#FFBE9D"/>
<path d="M301.098 173.925C301.098 173.925 301.623 173.763 302.548 173.4C303.847 172.876 305.032 172.103 306.036 171.125C306.726 170.456 307.319 169.694 307.799 168.862C308.337 167.891 308.757 166.858 309.049 165.786C309.238 165.171 309.543 164.598 309.949 164.099C310.402 163.592 310.967 163.199 311.599 162.948C312.85 162.398 314.212 162.273 315.413 161.773C316.008 161.551 316.537 161.181 316.95 160.698C317.341 160.257 317.555 159.687 317.55 159.098C317.453 158.549 317.165 158.053 316.737 157.696C316.31 157.339 315.77 157.145 315.213 157.148C314.121 157.138 313.037 157.324 312.012 157.698C310.999 157.985 310.062 158.285 309.224 158.585C307.536 159.173 306.199 159.723 305.273 160.111C304.805 160.338 304.32 160.53 303.823 160.686C304.238 160.368 304.692 160.103 305.173 159.898C306.073 159.448 307.399 158.835 309.074 158.185C309.924 157.86 310.849 157.535 311.862 157.223C312.949 156.811 314.101 156.599 315.263 156.597C315.924 156.647 316.559 156.876 317.1 157.26C317.391 157.471 317.634 157.742 317.811 158.055C317.988 158.367 318.095 158.715 318.125 159.073C318.094 159.805 317.836 160.508 317.389 161.088C316.941 161.668 316.325 162.095 315.625 162.311C314.287 162.861 312.937 162.986 311.799 163.474C311.25 163.7 310.756 164.041 310.349 164.474C309.987 164.919 309.711 165.427 309.537 165.974C309.242 167.065 308.822 168.118 308.286 169.112C307.77 169.972 307.13 170.751 306.386 171.425C305.328 172.41 304.07 173.156 302.698 173.613C302.326 173.735 301.946 173.831 301.56 173.9C301.235 173.938 301.098 173.95 301.098 173.925Z" fill="#EB996E"/>
<path d="M198.23 284.356H129.469C123.115 292.534 117.497 301.256 112.679 310.423L210.595 310.823C212.545 307.673 198.23 284.356 198.23 284.356Z" fill="#263238"/>
<path d="M218.546 221.896C216.221 191.141 208.545 171.813 208.545 171.813L196.643 168.149C194.842 176.013 182.028 178.614 174.739 175.176L167.025 171.137C142.259 167.387 143.534 169.475 137.808 172.913C132.807 175.901 133.295 198.217 133.295 198.217C133.295 198.217 120.955 256.352 121.63 265.666C122.305 274.98 129.482 284.419 129.482 284.419H198.243C205.169 284.419 207.145 268.779 206.657 263.103C206.169 257.427 219.309 232.01 218.546 221.896Z" fill="#004E89"/>
<path d="M153.311 241.249C153.643 241.63 154.031 241.958 154.461 242.224C155.574 243.03 156.763 243.726 158.011 244.3C159.873 245.162 161.847 245.755 163.875 246.062C166.374 246.416 168.917 246.306 171.376 245.737C175.817 244.603 179.855 242.257 183.041 238.961C184.011 237.994 184.906 236.953 185.716 235.848C186.045 235.475 186.315 235.053 186.516 234.598C186.416 234.523 185.166 236.273 182.678 238.624C179.477 241.722 175.527 243.936 171.214 245.05C166.861 246.032 162.309 245.593 158.224 243.8C155.073 242.487 153.386 241.137 153.311 241.249Z" fill="#263238"/>
<g opacity="0.3">
<path d="M185.379 236.161C184.898 241.417 182.359 246.271 178.315 249.663C176.29 251.317 173.903 252.47 171.347 253.026C168.792 253.582 166.142 253.526 163.613 252.864C161.104 252.137 158.844 250.735 157.08 248.81C155.316 246.885 154.116 244.511 153.611 241.949C157.073 243.722 160.762 245.009 164.575 245.775C168.692 246.327 172.881 245.677 176.636 243.902C180.392 242.128 183.554 239.305 185.741 235.773L185.179 236.361" fill="black"/>
</g>
<path d="M106.953 220.471L141.571 236.723C141.571 236.723 155.686 205.468 156.899 201.23C158.112 196.992 161.9 190.203 158.024 181.302C154.149 172.4 143.659 169.137 137.858 172.925C124.906 181.402 106.953 220.471 106.953 220.471Z" fill="#004E89"/>
<path d="M215.808 222.121C217.434 222.121 235.987 231.835 235.987 231.835L246.564 196.829C230.773 186.302 217.809 174.325 208.595 171.825L213.446 200.755L215.808 222.121Z" fill="#004E89"/>
<path d="M106.953 220.471C107.191 220.528 107.422 220.611 107.641 220.721L109.554 221.533L116.555 224.634L139.534 235.11L142.334 236.361L141.896 236.523C145.897 228.284 149.398 220.921 151.898 215.607L154.799 209.356C155.111 208.669 155.361 208.106 155.574 207.656C155.65 207.45 155.755 207.256 155.886 207.081C155.84 207.295 155.773 207.505 155.686 207.706C155.549 208.106 155.324 208.694 155.024 209.456C154.411 210.969 153.498 213.144 152.311 215.832C149.935 221.196 146.51 228.609 142.522 236.848L142.384 237.148L142.084 237.011L139.284 235.761L116.38 225.096L109.479 221.808L107.616 220.871C107.376 220.771 107.153 220.636 106.953 220.471Z" fill="#263238"/>
<path d="M212.695 193.379C212.977 194.08 213.215 194.798 213.408 195.529C213.871 197.029 214.483 199.03 215.233 201.443C216.734 206.443 218.984 213.432 218.984 221.446C218.867 225.225 218.245 228.971 217.134 232.585C216.171 235.923 215.058 238.836 214.108 241.337C213.158 243.837 212.333 245.712 211.77 247.063C211.514 247.778 211.2 248.472 210.833 249.138C210.855 248.94 210.905 248.746 210.983 248.563C211.133 248.125 211.308 247.6 211.533 246.975C212.07 245.5 212.783 243.55 213.67 241.174C214.558 238.799 215.633 235.798 216.558 232.423C217.62 228.855 218.217 225.166 218.334 221.446C218.234 213.507 216.146 206.518 214.746 201.505C214.046 199.005 213.495 196.954 213.133 195.542C212.945 194.829 212.82 194.291 212.745 193.904C212.7 193.733 212.684 193.555 212.695 193.379Z" fill="#263238"/>
<path d="M183.366 186.403C182.669 181.283 180.258 176.55 176.527 172.975C174.727 171.175 172.576 169.375 172.226 166.862C171.776 163.599 174.602 160.611 174.139 157.285C173.576 153.209 168.476 151.447 166.638 147.759C164.137 142.758 168.451 136.369 165.825 131.506C164.25 128.568 160.474 126.993 159.724 123.755C159.224 121.654 163.225 118.604 164.162 114.053C166.25 103.814 167.313 95.8999 157.374 89.9364L151.585 81.9851C145.084 85.1606 139.621 92.2993 139.508 99.7631C139.446 103.301 141.259 106.839 139.721 110.015C137.583 114.441 132.582 117.178 131.069 121.867C128.919 128.568 134.82 136.069 132.32 142.62C130.782 146.483 126.756 148.696 124.218 151.984C122.303 154.629 121.349 157.848 121.515 161.109C121.681 164.37 122.957 167.476 125.131 169.912C122.005 172.121 119.663 175.266 118.443 178.893C117.222 182.521 117.187 186.442 118.342 190.091C119.38 193.129 121.718 196.129 124.918 196.342C129.507 196.592 132.12 191.341 135.483 188.265C138.183 185.92 141.665 184.672 145.24 184.767C148.816 184.861 152.226 186.293 154.798 188.778C158.324 192.429 159.799 197.942 163.862 200.93C167.926 203.918 174.152 203.43 178.14 200.18C180.065 198.481 181.548 196.339 182.458 193.938C183.369 191.537 183.68 188.951 183.366 186.403Z" fill="#263238"/>
<path d="M138.183 234.51C131.619 245.287 127.044 251.488 127.044 251.488L185.803 287.294L178.94 303.197L102.677 271.804C102.677 271.804 95.1757 264.065 97.8137 255.451L109.966 221.896L138.183 234.51Z" fill="#FFBE9D"/>
<path d="M112.741 256.939C112.879 257.127 115.667 254.789 119.78 253.289C123.893 251.788 127.519 251.701 127.506 251.463C124.797 251.276 122.08 251.667 119.534 252.611C116.988 253.556 114.673 255.031 112.741 256.939Z" fill="#EB996E"/>
<path d="M231.449 298.184L216.784 291.17L188.166 288.894L185.829 287.282L178.94 303.197C178.94 303.197 186.441 306.785 190.379 307.098L214.433 306.372L227.01 307.623L231.449 298.184Z" fill="#FFBE9D"/>
<path d="M313.962 241.699L231.449 242.362C228.773 242.362 226.21 243.612 225.81 246.3L216.796 306.422H174.289C173.626 306.422 172.99 306.686 172.521 307.155C172.052 307.624 171.789 308.26 171.789 308.923C171.789 309.586 172.052 310.222 172.521 310.691C172.99 311.16 173.626 311.423 174.289 311.423H310.037L319.313 247.963C319.436 247.189 319.39 246.398 319.177 245.645C318.965 244.891 318.592 244.192 318.083 243.596C317.574 243.001 316.942 242.523 316.231 242.195C315.52 241.868 314.746 241.699 313.962 241.699Z" fill="#E0E0E0"/>
<path d="M313.963 241.699C314.383 241.675 314.804 241.713 315.213 241.812C316.479 242.115 317.596 242.859 318.363 243.912C318.932 244.679 319.282 245.587 319.376 246.537C319.406 247.679 319.306 248.82 319.076 249.938C318.726 252.363 318.338 255.164 317.888 258.302C316.075 270.916 313.45 289.082 310.237 311.423V311.636H310.012L178.34 311.711H174.814C174.173 311.776 173.526 311.654 172.952 311.361C172.514 311.117 172.15 310.76 171.896 310.328C171.642 309.897 171.509 309.405 171.509 308.904C171.509 308.403 171.642 307.911 171.896 307.479C172.15 307.048 172.514 306.691 172.952 306.447C173.526 306.155 174.173 306.034 174.814 306.097H216.809L216.496 306.372C219.734 284.831 222.747 264.74 225.473 246.725C225.559 245.519 226.111 244.394 227.011 243.587C227.903 242.825 228.998 242.339 230.161 242.187C231.266 242.081 232.377 242.044 233.487 242.074H236.725L249.152 241.987L271.218 241.849L302.648 241.687H313.225C313.712 241.687 313.963 241.687 313.963 241.687H313.225H311.05L302.648 241.812L271.218 242.162L249.152 242.374L236.725 242.499H233.487C232.406 242.471 231.324 242.513 230.249 242.624C229.191 242.759 228.193 243.193 227.373 243.874C226.57 244.597 226.085 245.608 226.023 246.687C223.335 264.715 220.334 284.806 217.121 306.347V306.622H174.814C174.287 306.568 173.756 306.659 173.277 306.885C172.943 307.072 172.666 307.344 172.473 307.674C172.28 308.003 172.178 308.378 172.178 308.76C172.178 309.142 172.28 309.517 172.473 309.847C172.666 310.176 172.943 310.449 173.277 310.636C173.757 310.871 174.294 310.966 174.827 310.911H178.377L310.049 310.986L309.799 311.211C313.1 288.882 315.8 270.729 317.663 258.127C318.138 254.989 318.563 252.188 318.913 249.763C319.14 248.665 319.253 247.546 319.251 246.425C319.109 245.351 318.648 244.345 317.928 243.536C317.209 242.727 316.263 242.152 315.213 241.887C314.802 241.792 314.384 241.729 313.963 241.699Z" fill="#263238"/>
<path d="M269.205 280.943C272.056 280.943 274.368 278.631 274.368 275.78C274.368 272.928 272.056 270.616 269.205 270.616C266.353 270.616 264.042 272.928 264.042 275.78C264.042 278.631 266.353 280.943 269.205 280.943Z" fill="white"/>
<path d="M220.197 310.773C220.322 310.773 222.947 295.483 226.06 276.58C229.173 257.677 231.624 242.337 231.511 242.312C231.399 242.287 228.761 257.602 225.648 276.518C222.535 295.433 220.034 310.773 220.197 310.773Z" fill="#263238"/>
</svg>
